<svg version="1.1" xmlns="http://www.w3.org/2000/svg" viewBox="-362.2 -3344.8999999999996 5771.9 3827.1"><desc>Created with Snap</desc><defs></defs><g><g transform="matrix(37.3925,0,0,37.3925,1276.4353,-3189.6693)"><title>Green electrical</title><g data-name="Layer 2"><path d="M10.81,56.93a.6.6,0,0,0,.86.81L29,44.33A1.3,1.3,0,0,0,28.2,42H23a1,1,0,0,1,0-2h2l.55-.88a5.68,5.68,0,0,1,4.08-2.62l4.94-.63a19.72,19.72,0,0,0,11.24-5.26A22.91,22.91,0,0,0,52.72,16,23.77,23.77,0,0,1,55.65,6.3l.13-.23a1.28,1.28,0,0,0-1-2H40.32A21.84,21.84,0,0,0,36,4.4a22.69,22.69,0,0,0-9.3,4.08A22.07,22.07,0,0,0,18.32,27.1a1.16,1.16,0,0,0,2,.75l3.31-3.31a25.66,25.66,0,0,1,10.1-6.21l3.86-1.27-5.14,4a54.88,54.88,0,0,0-5.48,5.26A72.8,72.8,0,0,0,19,36.83L12.43,47.31a.45.45,0,0,0,.38.69H16a.45.45,0,0,1,.37.7Z" fill="#5ca4a9" style=""></path></g><desc>Created with Snap</desc><defs></defs></g><g><g transform="matrix(0.5,0,0,-0.5,0,0)"><path d="M554 1438L572 1430Q568 1416 564 1394Q561 1373 557 1347Q630 1341 708 1331Q787 1321 862 1305Q937 1290 1005 1269Q1074 1249 1129 1223L1121 1204Q1011 1218 901 1223Q792 1229 683 1229Q648 1229 612 1227Q577 1225 541 1223Q533 1149 525 1058Q517 968 510 868Q504 768 499 661Q495 555 493 448Q491 342 492 239Q494 137 500 44Q506 -48 517 -127Q528 -206 545 -264Q547 -273 550 -283Q554 -292 554 -301Q554 -317 546 -327Q538 -336 521 -336Q499 -336 477 -324Q456 -312 439 -301Q409 -281 393 -237Q377 -193 370 -142Q363 -91 362 -42Q361 7 361 39Q361 115 364 207Q368 299 374 400Q381 502 391 609Q401 717 415 822Q429 928 446 1029Q464 1130 486 1219Q412 1214 338 1205Q265 1197 195 1185Q126 1173 62 1158Q-1 1144 -55 1126Q-67 1120 -81 1120Q-110 1120 -110 1149Q-110 1169 -99 1190Q-88 1211 -77 1227Q-60 1251 -27 1269Q7 1288 50 1302Q94 1317 142 1326Q191 1336 237 1342Q283 1349 323 1351Q364 1354 390 1354Q420 1354 453 1352Q486 1351 521 1349Q537 1399 554 1438ZM1836 151L1844 147Q1827 111 1802 75Q1778 40 1748 11Q1718 -17 1682 -35Q1646 -53 1605 -53Q1560 -53 1527 -30Q1494 -6 1471 32Q1448 71 1433 121Q1418 171 1408 224Q1398 277 1391 330Q1385 383 1379 427Q1347 385 1321 338Q1295 291 1271 240Q1247 190 1224 138Q1201 86 1175 35Q1169 24 1163 11Q1157 -1 1149 -12Q1141 -22 1130 -29Q1119 -36 1104 -36Q1090 -36 1080 -31Q1071 -26 1064 -19Q1058 -11 1054 -2Q1051 7 1049 15Q1037 58 1027 123Q1018 188 1011 262Q1004 336 1000 412Q997 489 997 554Q997 647 1009 745Q1021 844 1046 938Q1072 1032 1111 1115Q1151 1199 1205 1262Q1259 1325 1328 1362Q1398 1399 1484 1399Q1541 1399 1574 1365Q1607 1332 1607 1270Q1607 1177 1574 1091Q1542 1006 1491 928Q1441 850 1379 780Q1318 711 1261 652L1248 662Q1273 690 1301 731Q1330 773 1357 821Q1385 870 1410 923Q1435 977 1454 1029Q1473 1081 1484 1129Q1495 1178 1495 1218Q1495 1239 1491 1258Q1487 1277 1477 1291Q1467 1306 1451 1314Q1436 1323 1414 1323Q1370 1323 1331 1289Q1293 1255 1261 1197Q1229 1140 1204 1064Q1180 988 1162 905Q1145 822 1136 737Q1127 652 1127 575Q1127 523 1127 470Q1127 417 1129 359Q1132 301 1138 236Q1145 171 1157 95Q1201 209 1250 318Q1299 428 1356 519Q1364 532 1372 545Q1381 558 1391 568Q1401 579 1413 586Q1425 593 1439 593Q1456 593 1466 583Q1476 574 1482 560Q1488 546 1490 530Q1493 514 1495 501Q1499 472 1504 426Q1509 380 1516 327Q1523 275 1533 222Q1544 169 1560 126Q1577 84 1600 57Q1623 30 1655 30Q1681 30 1707 41Q1733 52 1757 69Q1781 86 1801 108Q1822 130 1836 151ZM2600 147L2606 143Q2589 108 2560 76Q2531 44 2495 18Q2459 -7 2419 -22Q2379 -37 2340 -37Q2286 -37 2250 -5Q2215 28 2198 74Q2159 35 2112 9Q2065 -16 2008 -16Q1957 -16 1917 2Q1878 21 1852 53Q1826 85 1812 127Q1799 169 1799 217Q1799 271 1814 322Q1829 374 1856 420Q1883 467 1920 507Q1957 547 2000 578L2012 569Q1970 509 1945 436Q1920 364 1920 289Q1920 257 1927 221Q1934 185 1950 154Q1966 123 1992 102Q2019 82 2059 82Q2093 82 2124 93Q2155 105 2184 125Q2182 137 2181 148Q2180 160 2180 172Q2180 220 2194 276Q2208 332 2231 387Q2254 443 2283 493Q2313 544 2344 580L2356 571Q2333 494 2318 412Q2303 330 2303 250Q2303 214 2307 180Q2312 147 2326 120Q2341 94 2367 78Q2393 63 2436 63Q2484 63 2526 87Q2568 112 2600 147ZM3404 147L3411 143Q3392 107 3370 74Q3349 41 3322 16Q3295 -9 3261 -24Q3227 -39 3183 -39Q3133 -39 3097 -15Q3061 10 3035 50Q3010 91 2994 143Q2979 195 2969 249Q2959 303 2954 355Q2949 408 2945 450Q2926 435 2899 392Q2872 350 2844 293Q2816 236 2790 169Q2765 102 2749 37Q2746 23 2739 8Q2733 -7 2723 -20Q2714 -32 2701 -41Q2688 -49 2672 -49Q2646 -49 2634 -31Q2623 -13 2618 10Q2589 137 2577 253Q2566 369 2566 485Q2566 513 2575 533Q2585 554 2601 567Q2617 581 2639 587Q2661 594 2685 594Q2688 594 2694 594Q2701 594 2707 592Q2713 591 2717 588Q2721 585 2720 580Q2694 449 2695 313Q2696 178 2709 53Q2720 103 2741 166Q2763 230 2791 294Q2820 359 2853 417Q2887 476 2922 516Q2939 535 2956 548Q2974 562 3000 562Q3015 562 3025 556Q3035 550 3041 541Q3048 532 3051 520Q3055 509 3057 498Q3062 469 3067 423Q3072 377 3079 325Q3087 273 3098 220Q3109 168 3126 125Q3143 83 3167 56Q3191 29 3224 29Q3251 29 3276 39Q3302 50 3325 66Q3348 83 3368 104Q3388 126 3404 147ZM4281 147L4287 143Q4271 110 4247 83Q4223 57 4193 38Q4163 20 4129 10Q4095 0 4058 0Q3980 0 3925 38Q3871 76 3834 137Q3807 107 3774 77Q3742 48 3705 25Q3669 3 3630 -11Q3591 -25 3552 -25Q3505 -25 3468 -6Q3431 13 3405 44Q3379 76 3365 116Q3351 157 3351 201Q3351 267 3380 334Q3410 401 3458 455Q3507 510 3570 544Q3633 578 3701 578Q3721 578 3736 574L3736 616Q3736 645 3738 693Q3740 741 3746 799Q3752 858 3761 922Q3771 987 3786 1050Q3802 1114 3823 1171Q3844 1229 3872 1272Q3900 1316 3936 1342Q3972 1368 4017 1368Q4070 1368 4103 1337Q4136 1306 4155 1260Q4174 1215 4180 1164Q4187 1113 4187 1073Q4187 1021 4177 952Q4167 884 4149 807Q4131 731 4106 651Q4081 571 4052 497Q4023 423 3989 359Q3956 296 3922 252Q3935 213 3953 180Q3972 147 3997 123Q4022 99 4054 85Q4086 72 4127 72Q4221 72 4281 147ZM3877 700Q3877 664 3877 616Q3877 569 3879 516Q3882 463 3888 407Q3895 352 3908 300Q3950 381 3985 477Q4020 574 4045 675Q4071 777 4085 878Q4099 979 4099 1069Q4099 1088 4097 1124Q4095 1160 4086 1195Q4077 1231 4059 1257Q4041 1284 4010 1284Q3986 1284 3967 1261Q3948 1239 3934 1201Q3920 1164 3910 1116Q3901 1068 3894 1016Q3888 964 3884 913Q3881 862 3879 818Q3878 775 3877 743Q3877 712 3877 700ZM3625 84Q3682 84 3730 106Q3779 128 3819 164Q3800 201 3786 243Q3773 286 3763 329Q3754 373 3748 417Q3743 461 3740 502Q3728 515 3710 523Q3692 532 3666 532Q3619 532 3582 506Q3546 481 3521 442Q3496 404 3483 358Q3470 313 3470 272Q3470 234 3478 199Q3487 165 3506 139Q3525 114 3554 99Q3584 84 3625 84ZM4867 147L4875 143Q4849 105 4812 72Q4776 39 4732 15Q4689 -9 4641 -23Q4594 -37 4546 -37Q4478 -37 4419 -20Q4360 -2 4316 34Q4272 70 4247 124Q4222 179 4222 252Q4222 324 4248 386Q4275 449 4321 495Q4368 542 4431 569Q4494 596 4566 596Q4600 596 4629 586Q4659 577 4681 558Q4703 540 4715 513Q4728 486 4728 451Q4728 409 4711 377Q4694 345 4666 321Q4638 297 4602 281Q4567 265 4528 255Q4490 245 4452 240Q4415 236 4384 236L4360 236Q4373 145 4432 97Q4491 49 4595 49Q4669 49 4739 75Q4810 101 4867 147ZM4357 289L4357 266L4382 266Q4418 266 4456 277Q4494 289 4524 311Q4555 334 4575 367Q4595 400 4595 442Q4595 483 4577 510Q4560 537 4517 537Q4473 537 4442 510Q4412 484 4393 445Q4374 407 4365 364Q4357 322 4357 289ZM5586 147L5595 143Q5577 103 5549 71Q5522 39 5490 16Q5458 -6 5424 -19Q5390 -31 5359 -31Q5301 -31 5261 -11Q5221 9 5196 43Q5171 77 5160 123Q5149 169 5149 221Q5149 261 5155 304Q5161 347 5172 387Q5174 393 5176 401Q5178 410 5178 416Q5178 421 5172 424Q5155 430 5136 435Q5117 441 5098 448Q5080 455 5063 464Q5047 473 5035 487Q5034 427 5015 365Q4996 304 4964 247Q4933 191 4891 142Q4849 93 4802 57L4792 67Q4821 99 4845 143Q4869 187 4886 235Q4903 283 4912 332Q4922 381 4922 424Q4922 446 4918 465Q4914 485 4909 503Q4905 521 4901 537Q4897 554 4897 571Q4897 599 4915 615Q4933 631 4961 631Q4976 631 4984 622Q4992 614 4998 602Q5004 590 5012 577Q5020 564 5035 555Q5054 544 5083 539Q5112 534 5144 530Q5176 526 5208 522Q5240 518 5265 508Q5291 499 5307 482Q5323 466 5323 438Q5323 424 5320 410Q5318 397 5313 385Q5301 343 5292 299Q5284 256 5284 213Q5284 176 5289 145Q5295 115 5310 93Q5325 71 5350 59Q5375 47 5414 47Q5470 47 5512 74Q5554 102 5586 147ZM6939 -61L6956 -68Q6945 -140 6906 -194Q6868 -247 6813 -282Q6759 -316 6693 -333Q6628 -350 6562 -350Q6515 -350 6465 -338Q6415 -326 6364 -312Q6314 -298 6265 -286Q6217 -274 6173 -274Q6152 -274 6128 -279Q6105 -284 6082 -293Q6060 -302 6041 -316Q6022 -329 6011 -346L5995 -338Q5999 -296 6016 -261Q6034 -226 6061 -200Q6089 -174 6124 -160Q6160 -145 6202 -145Q6212 -145 6221 -145Q6231 -145 6241 -146Q6199 -46 6171 73Q6144 193 6128 317Q6112 442 6105 565Q6099 688 6099 795Q6099 831 6100 879Q6102 927 6107 980Q6112 1034 6121 1088Q6131 1142 6148 1190Q6165 1238 6190 1276Q6215 1314 6251 1335Q6270 1346 6290 1355Q6311 1364 6333 1364Q6347 1364 6357 1357Q6368 1351 6368 1335Q6368 1326 6365 1318Q6363 1311 6360 1303Q6344 1267 6327 1233Q6311 1199 6300 1163Q6274 1076 6257 974Q6241 872 6233 761Q6225 650 6224 532Q6223 415 6228 298Q6234 182 6244 68Q6254 -45 6268 -149Q6310 -155 6353 -165Q6397 -174 6441 -184Q6486 -193 6532 -200Q6578 -207 6626 -207Q6671 -207 6716 -200Q6762 -192 6803 -175Q6845 -158 6880 -130Q6915 -102 6939 -61ZM7576 147L7584 143Q7558 105 7521 72Q7485 39 7441 15Q7398 -9 7350 -23Q7303 -37 7255 -37Q7187 -37 7128 -20Q7069 -2 7025 34Q6981 70 6956 124Q6931 179 6931 252Q6931 324 6957 386Q6984 449 7030 495Q7077 542 7140 569Q7203 596 7275 596Q7309 596 7338 586Q7368 577 7390 558Q7412 540 7424 513Q7437 486 7437 451Q7437 409 7420 377Q7403 345 7375 321Q7347 297 7311 281Q7276 265 7237 255Q7199 245 7161 240Q7124 236 7093 236L7069 236Q7082 145 7141 97Q7200 49 7304 49Q7378 49 7448 75Q7519 101 7576 147ZM7066 289L7066 266L7091 266Q7127 266 7165 277Q7203 289 7233 311Q7264 334 7284 367Q7304 400 7304 442Q7304 483 7286 510Q7269 537 7226 537Q7182 537 7151 510Q7121 484 7102 445Q7083 407 7074 364Q7066 322 7066 289ZM8712 147L8718 143Q8700 107 8675 73Q8650 40 8619 14Q8588 -12 8550 -28Q8513 -43 8469 -43Q8407 -43 8368 -1Q8329 41 8304 108Q8280 176 8266 261Q8252 347 8242 434Q8219 393 8199 348Q8180 304 8162 255Q8144 206 8126 154Q8108 102 8087 47Q8082 35 8076 20Q8070 6 8060 -8Q8051 -21 8038 -30Q8025 -39 8007 -39Q7994 -39 7984 -33Q7974 -27 7966 -19Q7959 -10 7953 0Q7948 11 7944 20Q7924 65 7912 112Q7900 159 7891 209Q7883 259 7877 315Q7871 371 7865 434Q7844 385 7827 340Q7811 296 7795 251Q7780 207 7764 159Q7749 112 7732 57Q7728 44 7723 29Q7719 15 7712 3Q7706 -9 7695 -17Q7685 -25 7669 -25Q7643 -25 7631 -9Q7619 8 7611 30Q7599 60 7588 113Q7577 167 7568 230Q7559 293 7554 360Q7549 427 7549 485Q7549 541 7579 567Q7609 594 7658 594Q7661 594 7667 594Q7673 594 7679 592Q7685 591 7689 588Q7694 585 7693 580Q7684 510 7681 447Q7678 384 7679 324Q7680 265 7685 207Q7691 150 7700 90Q7717 147 7733 199Q7750 251 7768 302Q7786 353 7806 405Q7827 458 7851 516Q7864 546 7878 558Q7893 570 7916 570Q7945 570 7961 548Q7978 526 7983 498Q7991 447 7997 393Q8003 340 8010 286Q8017 232 8027 179Q8037 127 8053 78Q8073 130 8093 186Q8113 243 8134 300Q8155 357 8178 412Q8202 467 8229 516Q8242 539 8258 554Q8275 570 8300 570Q8314 570 8325 563Q8336 557 8344 546Q8352 536 8357 523Q8362 511 8364 498Q8369 469 8373 423Q8378 377 8385 325Q8393 273 8404 220Q8415 168 8432 125Q8449 83 8473 56Q8497 29 8531 29Q8559 29 8585 39Q8611 50 8634 66Q8657 83 8676 104Q8696 126 8712 147ZM9255 295Q9255 225 9232 165Q9209 105 9167 61Q9125 17 9066 -8Q9008 -33 8937 -33Q8874 -33 8823 -10Q8773 14 8737 54Q8701 94 8682 147Q8663 201 8663 262Q8663 313 8677 359Q8692 405 8718 444Q8744 484 8780 517Q8816 551 8858 578L8870 569Q8828 520 8804 461Q8780 402 8780 336Q8780 288 8794 238Q8809 189 8837 148Q8865 107 8907 81Q8949 55 9003 55Q9037 55 9067 69Q9097 83 9119 107Q9142 131 9155 161Q9169 192 9169 225Q9169 257 9159 287Q9150 318 9133 344Q9116 371 9092 392Q9068 414 9040 428Q9024 436 9009 440Q8995 444 8978 449Q8971 450 8963 452Q8955 455 8948 458Q8941 462 8936 468Q8931 474 8931 483Q8931 501 8944 516Q8957 531 8975 542Q8993 554 9013 560Q9033 567 9048 567Q9099 567 9138 541Q9177 515 9203 475Q9229 435 9242 387Q9255 339 9255 295ZM10198 147L10205 143Q10186 107 10164 74Q10143 41 10116 16Q10089 -9 10055 -24Q10021 -39 9977 -39Q9927 -39 9891 -15Q9855 10 9829 50Q9804 91 9788 143Q9773 195 9763 249Q9753 303 9748 355Q9743 408 9739 450Q9720 435 9693 392Q9666 350 9638 293Q9610 236 9584 169Q9559 102 9543 37Q9540 23 9533 8Q9527 -7 9517 -20Q9508 -32 9495 -41Q9482 -49 9466 -49Q9440 -49 9428 -31Q9417 -13 9412 10Q9383 137 9371 253Q9360 369 9360 485Q9360 513 9369 533Q9379 554 9395 567Q9411 581 9433 587Q9455 594 9479 594Q9482 594 9488 594Q9495 594 9501 592Q9507 591 9511 588Q9515 585 9514 580Q9488 449 9489 313Q9490 178 9503 53Q9514 103 9535 166Q9557 230 9585 294Q9614 359 9647 417Q9681 476 9716 516Q9733 535 9750 548Q9768 562 9794 562Q9809 562 9819 556Q9829 550 9835 541Q9842 532 9845 520Q9849 509 9851 498Q9856 469 9861 423Q9866 377 9873 325Q9881 273 9892 220Q9903 168 9920 125Q9937 83 9961 56Q9985 29 10018 29Q10045 29 10070 39Q10096 50 10119 66Q10142 83 10162 104Q10182 126 10198 147Z" fill="#5ca4a9" style=""></path></g></g></g></svg>